<svg width="212" height="63" viewBox="0 0 212 63" fill="none" xmlns="http://www.w3.org/2000/svg">
<path fill-rule="evenodd" clip-rule="evenodd" d="M8.37367 54.6032V62.8571H0V13.3333H26.4093L27.3755 13.3572C33.2452 13.3572 38.0036 18.0475 38.0036 23.8334V44.127C38.0036 49.9128 33.2452 54.6032 27.3755 54.6032H8.37367ZM8.37367 46.3492V21.5873H19.968H22.8666H25.4431C27.7554 21.5873 29.6299 23.435 29.6299 25.7143V36.8254V39.3651V39.6825V42.2222C29.6299 44.5015 27.7554 46.3492 25.4431 46.3492H22.8666H20.6121H8.37367Z" fill="#E0431E"/>
<path d="M50.5641 0C53.2322 0 55.3951 2.13198 55.3951 4.7619C55.3951 7.39183 53.2322 9.52381 50.5641 9.52381C47.896 9.52381 45.7331 7.39183 45.7331 4.7619C45.7331 2.13198 47.896 0 50.5641 0Z" fill="#E0431E"/>
<path d="M46.3773 13.3333H54.7509V54.6032H46.3773V13.3333Z" fill="#E0431E"/>
<path d="M95.9752 54.6032V46.3492H80.5161H78.2617H75.6851C73.3728 46.3492 71.4983 44.5015 71.4983 42.2222V39.6825V39.3651V36.8254V25.7143C71.4983 23.435 73.3728 21.5873 75.6851 21.5873H78.2617H81.1602H95.9752V13.3333H74.7189L73.7527 13.3572C67.883 13.3572 63.1246 18.0475 63.1246 23.8334V44.127C63.1246 49.9128 67.883 54.6032 73.7527 54.6032H95.9752Z" fill="#E0431E"/>
<path fill-rule="evenodd" clip-rule="evenodd" d="M115.299 13.3333H117.231H126.249H133.335L134.301 13.3572C140.171 13.3572 144.929 18.0475 144.929 23.8334V44.127C144.929 49.9128 140.171 54.6032 134.301 54.6032H126.249H117.231H114.333C108.463 54.6032 103.705 49.9128 103.705 44.127V23.8334C103.705 18.0475 108.463 13.3572 114.333 13.3572L115.299 13.3333ZM118.842 21.5873H117.231H116.265C113.953 21.5873 112.078 23.435 112.078 25.7143V36.8254V39.3651V39.6825V42.2222C112.078 44.5015 113.953 46.3492 116.265 46.3492H117.231H118.842H121.096H127.538H132.368C134.681 46.3492 136.555 44.5015 136.555 42.2222V39.6825V39.3651V36.8254V25.7143C136.555 23.435 134.681 21.5873 132.368 21.5873H126.893H118.842Z" fill="#E0431E"/>
<path d="M153.303 13.3333H175.203L176.169 13.3572C178.584 13.3572 180.81 14.1508 182.595 15.4878C184.385 14.1364 186.623 13.3333 189.052 13.3333H201.266C207.136 13.3333 211.894 18.0237 211.894 23.8095L211.918 24.7619V54.6032H203.545V25.7143C203.545 23.435 201.67 21.5873 199.358 21.5873H190.984C188.672 21.5873 186.797 23.435 186.797 25.7143V54.6032H178.424V25.7143C178.424 23.435 176.549 21.5873 174.237 21.5873H161.676V54.6032H153.303V13.3333Z" fill="#E0431E"/>
</svg>
