<svg width="26" height="15" viewBox="0 0 26 15" fill="none" xmlns="http://www.w3.org/2000/svg">
<path fill-rule="evenodd" clip-rule="evenodd" d="M12.6344 14.692H14.1777C14.1777 14.692 14.644 14.6407 14.8826 14.3842C15.1023 14.1479 15.0942 13.7052 15.0942 13.7052C15.0942 13.7052 15.0646 11.6316 16.0256 11.3252C16.9732 11.0241 18.1903 13.3299 19.4789 14.2168C20.4547 14.8877 21.1947 14.7406 21.1947 14.7406L24.6426 14.692C24.6426 14.692 26.446 14.5799 25.5915 13.1598C25.5214 13.0437 25.0928 12.1095 23.0278 10.1885C20.8658 8.17843 21.1556 8.50377 23.7597 5.02763C25.3462 2.9109 25.9797 1.61764 25.7815 1.06415C25.5928 0.536319 24.4256 0.675365 24.4256 0.675365L20.5437 0.699664C20.5437 0.699664 20.2552 0.660515 20.0423 0.788761C19.8334 0.914307 19.6999 1.2059 19.6999 1.2059C19.6999 1.2059 19.0853 2.84475 18.2658 4.2379C16.5365 7.17811 15.845 7.33336 15.5633 7.15111C14.9055 6.72588 15.07 5.44207 15.07 4.52949C15.07 1.67973 15.5013 0.49177 14.2302 0.18398C13.8084 0.0813831 13.497 0.0152352 12.4174 0.00308554C11.0317 -0.010414 9.85909 0.0071355 9.19593 0.333825C8.75383 0.549819 8.41282 1.0331 8.62174 1.06145C8.87783 1.0952 9.45877 1.21805 9.76743 1.63788C10.1651 2.18057 10.1516 3.39688 10.1516 3.39688C10.1516 3.39688 10.3807 6.75153 9.61782 7.16731C9.09484 7.4535 8.37643 6.87032 6.83581 4.20145C6.04595 2.8353 5.45019 1.32469 5.45019 1.32469C5.45019 1.32469 5.33562 1.04255 5.13075 0.891358C4.88139 0.707764 4.53499 0.649716 4.53499 0.649716L0.841811 0.676715C0.841811 0.676715 0.287835 0.691564 0.0843062 0.933207C-0.0963089 1.14785 0.0694796 1.59199 0.0694796 1.59199C0.0694796 1.59199 2.95797 8.36068 6.22791 11.7707C9.22828 14.8972 12.6344 14.692 12.6344 14.692Z" fill="white"/>
</svg>
